<mxfile host="app.diagrams.net" modified="2024-07-17T02:00:16.309Z" agent="Mozilla/5.0 (Windows NT 10.0; Win64; x64) AppleWebKit/537.36 (KHTML, like Gecko) Chrome/126.0.0.0 Safari/537.36" version="24.7.0" etag="GjkBSTJYPAU94Il9I0Rv" type="github">
  <diagram name="第 1 页" id="Mc44zrtlsKlzKyASbJJS">
    <mxGraphModel>
      <root>
        <mxCell id="0" />
        <mxCell id="1" parent="0" />
      </root>
    </mxGraphModel>
  </diagram>
</mxfile>
